:SAMPLES-PER-SECOND 30
:FULLY-SPECIFIED
:DEGREES
90
root  -41.3471 36.5099 -29.567 122.786 -89.0231 -78.8359
RightUpLeg  -86.2103 -18.3717 34.3627
RightLeg  42.6386 1.52721 1.19831
RightFoot  -0.473626 1.35206 -14.1576
RightToes  0.00048216 0.542163 -0.142577
Spine  72.8769 -5.66769 6.54007
Spine1  6.43483 0.788685 -8.75698
HEad  -46.4384 -3.84852 0.747201
LeftShoulder1  4.17748 -22.9279 -8.23969
LeftArm  -101.351 -58.3081 28.0031
LeftForeArm  2.48656 -28.4181 -6.01453
LeftHand  -0.25398 0.0180481 5.50724
RightShoulder  2.53297 13.9403 6.91017
RightArm  -91.0862 48.7324 -24.9952
RightForeArm  -13.4214 26.2648 6.31071
RightHand  0.804059 7.16047 6.94676
LeftUpLeg  -84.0704 19.2536 -27.9371
LeftLeg  44.5635 3.57668 4.17512
LeftFoot  -6.40878 -0.300013 7.8502
LeftToes  1.06248e-005 4.65855e-005 -8.185e-006
91
root  -41.1274 36.5763 -29.4095 120.211 -89.0993 -77.0581
RightUpLeg  -85.4941 -19.1024 34.4842
RightLeg  41.5943 1.90449 1.51141
RightFoot  -0.0975329 1.43676 -14.5062
RightToes  0.00048216 0.542163 -0.142577
Spine  72.6214 -5.83857 6.3327
Spine1  6.72438 0.664072 -9.06442
HEad  -46.2435 -3.85276 0.762569
LeftShoulder1  4.28065 -22.9369 -8.66777
LeftArm  -98.4465 -58.3723 26.0658
LeftForeArm  2.48063 -30.0287 -6.40754
LeftHand  -0.25398 0.0180481 5.50724
RightShoulder  2.71734 14.7361 7.33204
RightArm  -88.1427 47.2953 -23.6557
RightForeArm  -12.8964 27.7818 6.651
RightHand  0.901365 6.68839 8.17855
LeftUpLeg  -83.3436 19.2647 -28.0343
LeftLeg  44.1346 3.62769 4.17019
LeftFoot  -5.87231 -0.344229 7.93398
LeftToes  1.06248e-005 4.65855e-005 -8.185e-006
92
root  -40.8586 36.6717 -29.2425 117.908 -89.1113 -75.7703
RightUpLeg  -84.4833 -19.9877 34.6516
RightLeg  40.2711 2.24803 1.75048
RightFoot  0.301914 1.48917 -14.4894
RightToes  0.00048216 0.542163 -0.142577
Spine  72.4328 -5.96818 6.08776
Spine1  6.58391 0.517646 -9.50502
HEad  -45.7026 -3.82291 0.81501
LeftShoulder1  4.23807 -22.8659 -8.53731
LeftArm  -94.9001 -58.3509 23.0301
LeftForeArm  2.51414 -31.1357 -6.68445
LeftHand  -0.25398 0.0180481 5.50724
RightShoulder  2.79143 15.1618 7.39228
RightArm  -83.1724 46.0743 -20.0963
RightForeArm  -14.0023 29.9775 7.2556
RightHand  0.876201 6.09863 8.38815
LeftUpLeg  -82.2833 19.399 -28.0555
LeftLeg  43.3619 3.66223 4.10072
LeftFoot  -5.31967 -0.404256 8.2805
LeftToes  1.06248e-005 4.65855e-005 -8.185e-006
93
root  -40.5428 36.7898 -29.0593 112.69 -88.903 -71.8667
RightUpLeg  -83.1392 -20.9728 34.8062
RightLeg  38.82 2.61255 1.97052
RightFoot  0.781316 1.51968 -14.1719
RightToes  0.00048216 0.542163 -0.142577
Spine  72.1958 -6.00017 5.95401
Spine1  6.33938 0.381318 -9.75156
HEad  -45.1395 -3.59157 0.615064
LeftShoulder1  4.1477 -22.6262 -8.32024
LeftArm  -90.1194 -58.2532 19.0185
LeftForeArm  1.93749 -32.2903 -7.016
LeftHand  -0.25398 0.0180481 5.50724
RightShoulder  2.77385 15.0577 7.3807
RightArm  -77.5132 45.1925 -14.9975
RightForeArm  -16.4022 33.0067 8.1835
RightHand  0.736668 5.18234 7.66652
LeftUpLeg  -80.9521 19.7089 -27.8196
LeftLeg  42.4504 3.67426 3.99147
LeftFoot  -4.67921 -0.482761 8.76077
LeftToes  1.06248e-005 4.65855e-005 -8.185e-006
94
root  -40.1879 36.937 -28.8696 101.778 -88.6155 -62.5986
RightUpLeg  -81.3855 -22.113 34.6514
RightLeg  37.1526 3.06773 2.22004
RightFoot  1.36724 1.5269 -13.5499
RightToes  0.00048216 0.542163 -0.142577
Spine  71.7156 -5.92739 5.90524
Spine1  6.51481 0.314946 -9.58679
HEad  -44.7803 -3.39308 -0.00917744
LeftShoulder1  4.13778 -22.4074 -8.42935
LeftArm  -84.0311 -58.0238 13.984
LeftForeArm  0.975251 -34.197 -7.58636
LeftHand  -0.25398 0.0180481 5.50724
RightShoulder  2.792 14.8263 7.70482
RightArm  -71.9628 43.9926 -9.8091
RightForeArm  -19.1533 36.5725 9.36639
RightHand  0.570928 3.7674 6.90077
LeftUpLeg  -79.19 20.1258 -27.5315
LeftLeg  41.2149 3.58847 3.75344
LeftFoot  -3.91121 -0.588185 9.39823
LeftToes  1.06248e-005 4.65855e-005 -8.185e-006
95
root  -39.7992 37.1218 -28.6834 87.5268 -88.3959 -50.3364
RightUpLeg  -79.1845 -23.4763 34.1043
RightLeg  35.1536 3.34701 2.27012
RightFoot  2.18076 1.57216 -13.0621
RightToes  0.00048216 0.542163 -0.142577
Spine  70.971 -5.84115 5.85363
Spine1  7.20629 0.349392 -9.37592
HEad  -44.493 -3.34745 -0.817323
LeftShoulder1  4.20884 -22.4598 -8.69691
LeftArm  -76.8489 -57.4689 7.8345
LeftForeArm  0.244044 -36.7426 -8.35838
LeftHand  -0.25398 0.0180481 5.50724
RightShoulder  2.93841 14.789 8.63352
RightArm  -66.6697 41.9372 -5.02232
RightForeArm  -21.6882 40.5141 10.7993
RightHand  0.413578 1.56276 6.75556
LeftUpLeg  -76.8091 20.6551 -27.406
LeftLeg  39.447 3.34388 3.32894
LeftFoot  -3.05999 -0.726324 10.2573
LeftToes  1.06248e-005 4.65855e-005 -8.185e-006
96
root  -39.3747 37.3425 -28.4969 73.6875 -88.1507 -38.861
RightUpLeg  -76.5204 -25.0652 33.3473
RightLeg  32.8473 3.38199 2.09735
RightFoot  3.27449 1.71965 -13.1583
RightToes  0.00048216 0.542163 -0.142577
Spine  70.0959 -5.79019 5.82404
Spine1  8.07261 0.450832 -9.40646
HEad  -44.0171 -3.22115 -1.64736
LeftShoulder1  4.28814 -22.7164 -8.85349
LeftArm  -68.827 -56.4898 0.96806
LeftForeArm  -0.311062 -38.977 -9.07849
LeftHand  -0.25398 0.0180481 5.50724
RightShoulder  3.21366 14.9254 10.1648
RightArm  -61.4466 39.0981 -0.452417
RightForeArm  -24.1991 44.7111 12.5352
RightHand  0.228615 -1.15942 6.54008
LeftUpLeg  -73.8349 21.4103 -27.3404
LeftLeg  37.2309 2.90775 2.74329
LeftFoot  -2.14202 -0.900909 11.3169
LeftToes  1.06248e-005 4.65855e-005 -8.185e-006
97
root  -38.9156 37.5816 -28.3014 64.9716 -87.6704 -32.8064
RightUpLeg  -73.34 -26.72 32.4682
RightLeg  30.2546 3.59148 2.01614
RightFoot  4.52476 1.91152 -13.4209
RightToes  0.00048216 0.542163 -0.142577
Spine  69.1064 -5.65404 5.89051
Spine1  8.76123 0.578097 -9.2604
HEad  -43.3098 -2.81211 -2.881
LeftShoulder1  4.3738 -22.8204 -9.14219
LeftArm  -60.1441 -55.1089 -6.44999
LeftForeArm  -0.911306 -40.5746 -9.64085
LeftHand  -0.25398 0.0180481 5.50724
RightShoulder  3.54064 15.0339 12.0088
RightArm  -55.9594 35.9151 3.6706
RightForeArm  -26.9148 48.7665 14.5116
RightHand  0.0624768 -3.30182 5.04285
LeftUpLeg  -70.5154 22.4476 -27.1146
LeftLeg  34.7425 2.24094 2.03481
LeftFoot  -1.15512 -1.11488 12.531
LeftToes  1.06248e-005 4.65855e-005 -8.185e-006
98
root  -38.4339 37.8178 -28.0968 62.7951 -86.9069 -33.39
RightUpLeg  -69.7049 -28.218 31.5385
RightLeg  27.3423 4.0068 2.01507
RightFoot  6.03651 2.0913 -13.3389
RightToes  0.00048216 0.542163 -0.142577
Spine  67.8772 -5.31013 6.02034
Spine1  9.18329 0.715135 -8.51476
HEad  -42.5857 -2.14366 -4.92229
LeftShoulder1  4.60747 -22.7113 -10.2086
LeftArm  -51.3329 -52.89 -14.1811
LeftForeArm  -1.06521 -42.4273 -10.3002
LeftHand  -0.25398 0.0180481 5.50724
RightShoulder  3.82709 14.9194 13.8565
RightArm  -50.1128 32.7549 7.14018
RightForeArm  -29.162 52.4517 16.6342
RightHand  -0.012005 -4.2911 2.42466
LeftUpLeg  -67.1176 23.736 -26.6589
LeftLeg  32.0369 1.32245 1.24748
LeftFoot  -0.164256 -1.34952 13.7317
LeftToes  1.06248e-005 4.65855e-005 -8.185e-006
99
root  -37.9416 38.0496 -27.8919 64.0485 -86.0387 -37.4031
RightUpLeg  -65.9212 -29.6467 30.8307
RightLeg  24.2085 4.31103 1.86301
RightFoot  8.2026 2.33991 -13.1786
RightToes  0.00048216 0.542163 -0.142577
Spine  66.4389 -4.87263 6.08879
Spine1  9.47973 0.84986 -7.55421
HEad  -42.0681 -1.18095 -7.60218
LeftShoulder1  5.20869 -22.7848 -12.6672
LeftArm  -43.6636 -49.1938 -20.4204
LeftForeArm  -0.367407 -45.2533 -11.3318
LeftHand  -0.25398 0.0180481 5.50724
RightShoulder  4.03384 14.5482 15.5813
RightArm  -44.479 29.5911 10.5593
RightForeArm  -29.6607 56.1797 19.1462
RightHand  -0.0359467 -4.99902 -0.0183181
LeftUpLeg  -63.7013 25.237 -26.0069
LeftLeg  29.1466 0.205616 0.470559
LeftFoot  0.824935 -1.57616 14.6579
LeftToes  1.06248e-005 4.65855e-005 -8.185e-006
